<svg width="70" height="70" viewBox="0 0 70 70" fill="none" xmlns="http://www.w3.org/2000/svg">
<path d="M46.3063 67.8728H5.30365C4.46288 67.8728 3.65654 67.5388 3.06202 66.9443C2.4675 66.3498 2.13351 65.5435 2.13351 64.7027V5.30365C2.13351 4.46288 2.4675 3.65654 3.06202 3.06202C3.65654 2.4675 4.46288 2.13351 5.30365 2.13351H16.9698V5.30365C16.9715 6.70892 17.5305 8.05614 18.5241 9.04981C19.5178 10.0435 20.865 10.6025 22.2703 10.6041H39.2369C40.6427 10.6033 41.9907 10.0447 42.9851 9.05093C43.9795 8.05717 44.5389 6.70946 44.5406 5.30365V2.13351H56.2067C57.0475 2.13351 57.8538 2.4675 58.4483 3.06202C59.0428 3.65654 59.3768 4.46288 59.3768 5.30365V29.3365C59.3768 29.6182 59.4887 29.8883 59.6879 30.0875C59.8871 30.2866 60.1572 30.3985 60.4388 30.3985C60.7205 30.3985 60.9906 30.2866 61.1898 30.0875C61.3889 29.8883 61.5008 29.6182 61.5008 29.3365V5.30365C61.4992 3.8992 60.9412 2.5526 59.9489 1.55861C58.9567 0.564616 57.6111 0.00419142 56.2067 0H5.30365C3.89755 0.00167793 2.54952 0.560993 1.55526 1.55526C0.560993 2.54952 0.00167793 3.89755 0 5.30365V64.69C0.00167793 66.0961 0.560993 67.4441 1.55526 68.4384C2.54952 69.4327 3.89755 69.992 5.30365 69.9937H46.3063C46.5775 69.9788 46.8328 69.8606 47.0195 69.6634C47.2062 69.4662 47.3103 69.2049 47.3103 68.9332C47.3103 68.6616 47.2062 68.4003 47.0195 68.2031C46.8328 68.0059 46.5775 67.8877 46.3063 67.8728ZM19.0906 2.12083H42.4229V5.29097C42.4229 6.13175 42.0889 6.93809 41.4944 7.53261C40.8999 8.12712 40.0935 8.46112 39.2527 8.46112H22.2703C21.4295 8.46112 20.6232 8.12712 20.0286 7.53261C19.4341 6.93809 19.1001 6.13175 19.1001 5.29097L19.0906 2.12083ZM41.009 20.5077H33.9396C33.6684 20.4928 33.4131 20.3747 33.2264 20.1774C33.0397 19.9802 32.9356 19.7189 32.9356 19.4473C32.9356 19.1756 33.0397 18.9143 33.2264 18.7171C33.4131 18.5199 33.6684 18.4017 33.9396 18.3868H41.009C41.2757 18.4075 41.5247 18.528 41.7064 18.7243C41.8881 18.9206 41.989 19.1782 41.989 19.4457C41.989 19.7131 41.8881 19.9708 41.7064 20.1671C41.5247 20.3633 41.2757 20.487 41.009 20.5077ZM14.9377 18.3868H28.2809C28.5521 18.4017 28.8073 18.5199 28.9941 18.7171C29.1808 18.9143 29.2849 19.1756 29.2849 19.4473C29.2849 19.7189 29.1808 19.9802 28.9941 20.1774C28.8073 20.3747 28.5521 20.4928 28.2809 20.5077H14.9377C14.6665 20.4928 14.4113 20.3747 14.2245 20.1774C14.0378 19.9802 13.9337 19.7189 13.9337 19.4473C13.9337 19.1756 14.0378 18.9143 14.2245 18.7171C14.4113 18.5199 14.6665 18.4017 14.9377 18.3868ZM9.28219 20.5077C8.41674 20.5077 6.8063 20.7581 6.8063 19.4457C6.8063 18.1332 8.41674 18.3964 9.28219 18.3868C9.54885 18.4075 9.79791 18.528 9.97959 18.7243C10.1613 18.9206 10.2622 19.1782 10.2622 19.4457C10.2622 19.7131 10.1613 19.9708 9.97959 20.1671C9.79791 20.3633 9.54885 20.487 9.28219 20.5077ZM41.009 30.4017H28.2809C28.0097 30.3869 27.7544 30.2687 27.5677 30.0714C27.3809 29.8742 27.2769 29.6129 27.2769 29.3413C27.2769 29.0697 27.3809 28.8084 27.5677 28.6111C27.7544 28.4139 28.0097 28.2957 28.2809 28.2809H41.009C41.2802 28.2957 41.5354 28.4139 41.7222 28.6111C41.9089 28.8084 42.013 29.0697 42.013 29.3413C42.013 29.6129 41.9089 29.8742 41.7222 30.0714C41.5354 30.2687 41.2802 30.3869 41.009 30.4017ZM14.9377 28.2809H22.6253C22.8965 28.2957 23.1518 28.4139 23.3385 28.6111C23.5253 28.8084 23.6293 29.0697 23.6293 29.3413C23.6293 29.6129 23.5253 29.8742 23.3385 30.0714C23.1518 30.2687 22.8965 30.3869 22.6253 30.4017H14.9377C14.6665 30.3869 14.4113 30.2687 14.2245 30.0714C14.0378 29.8742 13.9337 29.6129 13.9337 29.3413C13.9337 29.0697 14.0378 28.8084 14.2245 28.6111C14.4113 28.4139 14.6665 28.2957 14.9377 28.2809ZM9.28219 30.4017H7.86513C7.59392 30.3869 7.3387 30.2687 7.15195 30.0714C6.96521 29.8742 6.86113 29.6129 6.86113 29.3413C6.86113 29.0697 6.96521 28.8084 7.15195 28.6111C7.3387 28.4139 7.59392 28.2957 7.86513 28.2809H9.28219C9.5534 28.2957 9.80862 28.4139 9.99537 28.6111C10.1821 28.8084 10.2862 29.0697 10.2862 29.3413C10.2862 29.6129 10.1821 29.8742 9.99537 30.0714C9.80862 30.2687 9.5534 30.3869 9.28219 30.4017ZM41.009 40.3021H33.9396C33.6684 40.2872 33.4131 40.169 33.2264 39.9718C33.0397 39.7746 32.9356 39.5133 32.9356 39.2417C32.9356 38.97 33.0397 38.7087 33.2264 38.5115C33.4131 38.3143 33.6684 38.1961 33.9396 38.1812H41.009C41.2802 38.1961 41.5354 38.3143 41.7222 38.5115C41.9089 38.7087 42.013 38.97 42.013 39.2417C42.013 39.5133 41.9089 39.7746 41.7222 39.9718C41.5354 40.169 41.2802 40.2872 41.009 40.3021ZM28.2809 40.3021H14.9377C14.6665 40.2872 14.4113 40.169 14.2245 39.9718C14.0378 39.7746 13.9337 39.5133 13.9337 39.2417C13.9337 38.97 14.0378 38.7087 14.2245 38.5115C14.4113 38.3143 14.6665 38.1961 14.9377 38.1812H28.2809C28.5521 38.1961 28.8073 38.3143 28.9941 38.5115C29.1808 38.7087 29.2849 38.97 29.2849 39.2417C29.2849 39.5133 29.1808 39.7746 28.9941 39.9718C28.8073 40.169 28.5521 40.2872 28.2809 40.3021ZM9.28219 40.3021H7.86513C7.59392 40.2872 7.3387 40.169 7.15195 39.9718C6.96521 39.7746 6.86113 39.5133 6.86113 39.2417C6.86113 38.97 6.96521 38.7087 7.15195 38.5115C7.3387 38.3143 7.59392 38.1961 7.86513 38.1812H9.28219C9.5534 38.1961 9.80862 38.3143 9.99537 38.5115C10.1821 38.7087 10.2862 38.97 10.2862 39.2417C10.2862 39.5133 10.1821 39.7746 9.99537 39.9718C9.80862 40.169 9.5534 40.2872 9.28219 40.3021ZM28.2809 50.1993H14.9377C14.6665 50.1844 14.4113 50.0662 14.2245 49.869C14.0378 49.6718 13.9337 49.4105 13.9337 49.1389C13.9337 48.8672 14.0378 48.6059 14.2245 48.4087C14.4113 48.2115 14.6665 48.0933 14.9377 48.0784H28.2809C28.5521 48.0933 28.8073 48.2115 28.9941 48.4087C29.1808 48.6059 29.2849 48.8672 29.2849 49.1389C29.2849 49.4105 29.1808 49.6718 28.9941 49.869C28.8073 50.0662 28.5521 50.1844 28.2809 50.1993ZM9.28219 50.1993C8.41674 50.1993 6.8063 50.4529 6.8063 49.1404C6.8063 47.828 8.41674 48.0911 9.28219 48.0784C9.5534 48.0933 9.80862 48.2115 9.99537 48.4087C10.1821 48.6059 10.2862 48.8672 10.2862 49.1389C10.2862 49.4105 10.1821 49.6718 9.99537 49.869C9.80862 50.0662 9.5534 50.1844 9.28219 50.1993ZM28.2809 60.0996H14.9377C14.6665 60.0848 14.4113 59.9666 14.2245 59.7694C14.0378 59.5721 13.9337 59.3108 13.9337 59.0392C13.9337 58.7676 14.0378 58.5063 14.2245 58.3091C14.4113 58.1118 14.6665 57.9936 14.9377 57.9788H28.2809C28.5521 57.9936 28.8073 58.1118 28.9941 58.3091C29.1808 58.5063 29.2849 58.7676 29.2849 59.0392C29.2849 59.3108 29.1808 59.5721 28.9941 59.7694C28.8073 59.9666 28.5521 60.0848 28.2809 60.0996ZM9.28219 60.0996C8.41674 60.0996 6.8063 60.3532 6.8063 59.0376C6.8063 57.722 8.41674 57.9915 9.28219 57.9788C9.5534 57.9936 9.80862 58.1118 9.99537 58.3091C10.1821 58.5063 10.2862 58.7676 10.2862 59.0392C10.2862 59.3108 10.1821 59.5721 9.99537 59.7694C9.80862 59.9666 9.5534 60.0848 9.28219 60.0996ZM69.9715 41.4972C69.9082 40.8491 69.7068 40.222 69.3808 39.6582C69.0548 39.0945 68.6118 38.6071 68.0816 38.2289C67.5515 37.8507 66.9464 37.5905 66.3073 37.4658C65.6681 37.3411 65.0096 37.3548 64.3762 37.506C64.0894 36.9645 63.6971 36.4859 63.2223 36.0985C62.7475 35.7111 62.2 35.4228 61.6119 35.2505C61.0239 35.0782 60.4073 35.0255 59.7985 35.0955C59.1898 35.1654 58.6012 35.3566 58.0676 35.6578C57.4254 35.1325 56.6549 34.7877 55.8353 34.659C55.0157 34.5303 54.1765 34.6223 53.4043 34.9255V22.0579C53.3155 17.2266 45.0763 17.2393 44.9875 22.0579V48.1038C38.3302 46.5663 29.0766 49.2546 32.307 56.8597C32.4207 57.0446 32.5882 57.1902 32.7872 57.2769C32.9861 57.3636 33.2069 57.3873 33.4197 57.3448C35.5234 56.8363 37.6938 56.6609 39.8519 56.8249C43.7322 57.9376 47.5902 62.7372 51.0584 64.1384V68.9317C51.0584 69.2125 51.1699 69.4818 51.3685 69.6804C51.5671 69.8789 51.8364 69.9905 52.1172 69.9905H68.9412C69.0803 69.9909 69.2182 69.9638 69.3469 69.9107C69.4755 69.8577 69.5924 69.7797 69.6908 69.6813C69.7892 69.5829 69.8672 69.466 69.9202 69.3374C69.9733 69.2087 70.0004 69.0708 70 68.9317V41.8142C69.9965 41.7081 69.987 41.6023 69.9715 41.4972ZM67.8728 67.8697H53.1697V64.335H67.8728V67.8697ZM67.8728 62.2141H52.1077C48.6713 61.0317 44.5723 55.8263 40.4923 54.8055C38.3102 54.5024 36.0912 54.5969 33.9428 55.0845C32.3418 49.2355 42.7114 49.3465 45.7611 50.4687C45.9186 50.5114 46.0838 50.5173 46.244 50.4862C46.4042 50.455 46.5552 50.3876 46.6852 50.289C46.8153 50.1904 46.9211 50.0634 46.9945 49.9176C47.0678 49.7718 47.1068 49.6111 47.1084 49.4479V22.0579C47.1369 20.0543 51.2549 20.0163 51.2835 22.0579V37.0495C51.2885 37.2688 51.3611 37.4812 51.4915 37.6577C51.6218 37.8342 51.8034 37.9661 52.0115 38.0355C52.2196 38.1049 52.4441 38.1083 52.6542 38.0453C52.8643 37.9823 53.0499 37.856 53.1855 37.6835C53.4196 37.3914 53.7163 37.1555 54.0538 36.9935C54.3912 36.8314 54.7608 36.7473 55.1352 36.7473C55.5095 36.7473 55.8791 36.8314 56.2166 36.9935C56.554 37.1555 56.8508 37.3914 57.0848 37.6835C57.174 37.804 57.2876 37.9044 57.4181 37.9781C57.5486 38.0519 57.6932 38.0973 57.8425 38.1115C58.765 38.1115 59.3229 37.0146 60.3279 37.1605C60.8844 37.1627 61.4235 37.3546 61.8563 37.7044C62.2891 38.0542 62.5897 38.5411 62.7087 39.0847C62.7431 39.2472 62.8153 39.3993 62.9194 39.5287C63.0235 39.6581 63.1565 39.7612 63.3078 39.8297C64.0369 40.1784 64.6805 39.4017 65.4318 39.4905C66.0561 39.4943 66.6556 39.7356 67.1084 40.1655C67.5612 40.5953 67.8334 41.1814 67.8697 41.8047L67.8728 62.2141Z" fill="#7036BA"/>
</svg>
