<svg width="205" height="60" viewBox="0 0 205 60" fill="none" xmlns="http://www.w3.org/2000/svg">
<path d="M27.855 34.29L30 32.145L27.855 30L22.5 35.355L9.645 22.5L15 17.145L12.855 15L10.71 17.145L8.565 15L5.355 18.21L3.21 16.065L1.065 18.21L3.21 20.355L0 23.565L2.145 25.71L0 27.855L2.145 30L7.5 24.645L20.355 37.5L15 42.855L17.145 45L19.29 42.855L21.435 45L24.645 41.79L26.79 43.935L28.935 41.79L26.79 39.645L30 36.435L27.855 34.29Z" fill="white"/>
<path d="M41.9174 27.28H40V25.84H41.9174V25.4667C41.9174 24.8089 42.0151 24.16 42.2103 23.52C42.4056 22.88 42.6986 22.2933 43.0892 21.76C43.4975 21.2267 44.0035 20.8 44.6071 20.48C45.2285 20.16 45.9653 20 46.8175 20C47.4744 20 48.0602 20.0711 48.5751 20.2133C49.1077 20.3556 49.5693 20.5244 49.9599 20.72C50.3505 20.9156 50.6434 21.0933 50.8387 21.2533L50.0131 22.56C49.7291 22.2933 49.303 22.0711 48.7349 21.8933C48.1845 21.6978 47.5809 21.6 46.924 21.6C46.1783 21.6 45.5658 21.7956 45.0865 22.1867C44.6249 22.56 44.2787 23.04 44.0479 23.6267C43.8348 24.2133 43.7283 24.8089 43.7283 25.4133V25.84H50.6789V39.7333H48.868V27.28H43.7283V39.7333H41.9174V27.28Z" fill="white"/>
<path d="M61.3287 39.0667C61.1867 39.12 60.9647 39.2178 60.6629 39.36C60.3611 39.5022 59.9972 39.6267 59.5711 39.7333C59.145 39.84 58.6834 39.8933 58.1863 39.8933C57.6714 39.8933 57.1832 39.7956 56.7216 39.6C56.2777 39.4044 55.9227 39.1111 55.6564 38.72C55.39 38.3111 55.2569 37.8133 55.2569 37.2267V27.28H53.3395V25.84H55.2569V21.1467H57.0678V25.84H60.2635V27.28H57.0678V36.72C57.1033 37.2178 57.2808 37.5911 57.6004 37.84C57.9377 38.0889 58.3194 38.2133 58.7455 38.2133C59.2426 38.2133 59.6953 38.1333 60.1037 37.9733C60.512 37.7956 60.7606 37.6711 60.8493 37.6L61.3287 39.0667Z" fill="white"/>
<path d="M75.2555 39.7333H73.4446V31.9733C73.4446 30.3378 73.2049 29.1467 72.7256 28.4C72.2462 27.6356 71.4917 27.2533 70.462 27.2533C69.7518 27.2533 69.0506 27.4311 68.3582 27.7867C67.6658 28.1244 67.0533 28.5956 66.5206 29.2C66.0058 29.7867 65.6329 30.4622 65.4022 31.2267V39.7333H63.5913V25.84H65.2424V28.9867C65.6152 28.3111 66.1034 27.7244 66.7071 27.2267C67.3107 26.7111 67.9942 26.3111 68.7576 26.0267C69.521 25.7422 70.3111 25.6 71.1278 25.6C71.8912 25.6 72.5392 25.7422 73.0718 26.0267C73.6044 26.3111 74.0305 26.72 74.3501 27.2533C74.6696 27.7689 74.9004 28.4 75.0425 29.1467C75.1845 29.8756 75.2555 30.6933 75.2555 31.6V39.7333Z" fill="white"/>
<path d="M85.1091 40C84.1149 40 83.1917 39.8133 82.3395 39.44C81.4873 39.0489 80.7505 38.5244 80.1291 37.8667C79.5078 37.1911 79.0195 36.4178 78.6644 35.5467C78.3271 34.6756 78.1585 33.7422 78.1585 32.7467C78.1585 31.4489 78.4514 30.2578 79.0373 29.1733C79.6409 28.0889 80.4665 27.2267 81.5139 26.5867C82.5614 25.9289 83.7509 25.6 85.0825 25.6C86.4495 25.6 87.639 25.9289 88.651 26.5867C89.6807 27.2444 90.4885 28.1156 91.0744 29.2C91.6602 30.2667 91.9532 31.44 91.9532 32.72C91.9532 32.8622 91.9532 33.0044 91.9532 33.1467C91.9532 33.2711 91.9443 33.3689 91.9265 33.44H80.0492C80.138 34.4356 80.4132 35.3244 80.8748 36.1067C81.3541 36.8711 81.9667 37.4844 82.7123 37.9467C83.4757 38.3911 84.3013 38.6133 85.189 38.6133C86.0944 38.6133 86.9466 38.3822 87.7455 37.92C88.5622 37.4578 89.1303 36.8533 89.4499 36.1067L91.0211 36.5333C90.737 37.1911 90.3021 37.7867 89.7162 38.32C89.1303 38.8533 88.4379 39.2711 87.639 39.5733C86.8578 39.8578 86.0145 40 85.1091 40ZM79.996 32.1333H90.2488C90.1778 31.12 89.9026 30.2311 89.4233 29.4667C88.9617 28.7022 88.3491 28.1067 87.5857 27.68C86.8401 27.2356 86.0145 27.0133 85.1091 27.0133C84.2036 27.0133 83.3781 27.2356 82.6324 27.68C81.8868 28.1067 81.2743 28.7111 80.7949 29.4933C80.3333 30.2578 80.067 31.1378 79.996 32.1333Z" fill="white"/>
<path d="M99.301 40C98.1647 40 97.1084 39.8133 96.1319 39.44C95.1554 39.0667 94.3121 38.4978 93.602 37.7333L94.3476 36.4533C95.1288 37.1822 95.91 37.7156 96.6911 38.0533C97.4901 38.3733 98.3334 38.5333 99.2211 38.5333C100.304 38.5333 101.183 38.32 101.858 37.8933C102.532 37.4489 102.869 36.8178 102.869 36C102.869 35.4489 102.701 35.0311 102.363 34.7467C102.044 34.4444 101.573 34.2044 100.952 34.0267C100.348 33.8311 99.6205 33.6267 98.7683 33.4133C97.8096 33.1467 97.0018 32.8711 96.3449 32.5867C95.7058 32.2844 95.2176 31.9111 94.8803 31.4667C94.5607 31.0044 94.4009 30.4089 94.4009 29.68C94.4009 28.7733 94.6228 28.0267 95.0667 27.44C95.5283 26.8356 96.1497 26.3822 96.9308 26.08C97.7297 25.76 98.6174 25.6 99.5939 25.6C100.659 25.6 101.6 25.7689 102.417 26.1067C103.233 26.4444 103.899 26.9156 104.414 27.52L103.535 28.7467C103.038 28.1778 102.443 27.76 101.751 27.4933C101.076 27.2089 100.322 27.0667 99.4874 27.0667C98.9192 27.0667 98.3778 27.1467 97.8629 27.3067C97.348 27.4489 96.9219 27.6978 96.5846 28.0533C96.2651 28.3911 96.1053 28.8622 96.1053 29.4667C96.1053 29.9644 96.2295 30.3556 96.4781 30.64C96.7267 30.9067 97.0995 31.1378 97.5966 31.3333C98.0937 31.5111 98.7062 31.7067 99.4341 31.92C100.482 32.2044 101.396 32.4978 102.177 32.8C102.958 33.0844 103.562 33.4578 103.988 33.92C104.414 34.3822 104.627 35.0311 104.627 35.8667C104.627 37.1644 104.139 38.1778 103.162 38.9067C102.186 39.6356 100.899 40 99.301 40Z" fill="white"/>
<path d="M112.174 40C111.038 40 109.982 39.8133 109.005 39.44C108.029 39.0667 107.185 38.4978 106.475 37.7333L107.221 36.4533C108.002 37.1822 108.783 37.7156 109.564 38.0533C110.363 38.3733 111.207 38.5333 112.094 38.5333C113.177 38.5333 114.056 38.32 114.731 37.8933C115.405 37.4489 115.743 36.8178 115.743 36C115.743 35.4489 115.574 35.0311 115.237 34.7467C114.917 34.4444 114.447 34.2044 113.825 34.0267C113.222 33.8311 112.494 33.6267 111.642 33.4133C110.683 33.1467 109.875 32.8711 109.218 32.5867C108.579 32.2844 108.091 31.9111 107.754 31.4667C107.434 31.0044 107.274 30.4089 107.274 29.68C107.274 28.7733 107.496 28.0267 107.94 27.44C108.402 26.8356 109.023 26.3822 109.804 26.08C110.603 25.76 111.491 25.6 112.467 25.6C113.532 25.6 114.473 25.7689 115.29 26.1067C116.107 26.4444 116.772 26.9156 117.287 27.52L116.408 28.7467C115.911 28.1778 115.317 27.76 114.624 27.4933C113.95 27.2089 113.195 27.0667 112.361 27.0667C111.792 27.0667 111.251 27.1467 110.736 27.3067C110.221 27.4489 109.795 27.6978 109.458 28.0533C109.138 28.3911 108.979 28.8622 108.979 29.4667C108.979 29.9644 109.103 30.3556 109.351 30.64C109.6 30.9067 109.973 31.1378 110.47 31.3333C110.967 31.5111 111.579 31.7067 112.307 31.92C113.355 32.2044 114.269 32.4978 115.05 32.8C115.831 33.0844 116.435 33.4578 116.861 33.92C117.287 34.3822 117.5 35.0311 117.5 35.8667C117.5 37.1644 117.012 38.1778 116.036 38.9067C115.059 39.6356 113.772 40 112.174 40Z" fill="white"/>
<path d="M133.353 40C132.217 40 131.196 39.8133 130.291 39.44C129.385 39.0489 128.613 38.5156 127.974 37.84C127.352 37.1644 126.873 36.3911 126.536 35.52C126.198 34.6489 126.03 33.7333 126.03 32.7733C126.03 31.7956 126.198 30.8711 126.536 30C126.873 29.1289 127.352 28.3556 127.974 27.68C128.613 27.0044 129.385 26.48 130.291 26.1067C131.196 25.7156 132.217 25.52 133.353 25.52C134.489 25.52 135.501 25.7156 136.389 26.1067C137.294 26.48 138.067 27.0044 138.706 27.68C139.345 28.3556 139.824 29.1289 140.144 30C140.481 30.8711 140.65 31.7956 140.65 32.7733C140.65 33.7333 140.481 34.6489 140.144 35.52C139.824 36.3911 139.345 37.1644 138.706 37.84C138.084 38.5156 137.321 39.0489 136.416 39.44C135.51 39.8133 134.489 40 133.353 40ZM129.705 32.7733C129.705 33.5911 129.864 34.32 130.184 34.96C130.504 35.5822 130.939 36.0711 131.489 36.4267C132.039 36.7822 132.661 36.96 133.353 36.96C134.028 36.96 134.64 36.7822 135.191 36.4267C135.741 36.0533 136.176 35.5556 136.496 34.9333C136.833 34.2933 137.002 33.5644 137.002 32.7467C137.002 31.9467 136.833 31.2267 136.496 30.5867C136.176 29.9467 135.741 29.4489 135.191 29.0933C134.64 28.7378 134.028 28.56 133.353 28.56C132.661 28.56 132.039 28.7467 131.489 29.12C130.939 29.4756 130.504 29.9733 130.184 30.6133C129.864 31.2356 129.705 31.9556 129.705 32.7733Z" fill="white"/>
<path d="M156.028 39.7333H152.459V31.8933C152.459 30.7733 152.264 29.9556 151.873 29.44C151.483 28.9244 150.941 28.6667 150.249 28.6667C149.769 28.6667 149.281 28.7911 148.784 29.04C148.305 29.2889 147.87 29.6356 147.479 30.08C147.089 30.5067 146.805 31.0044 146.627 31.5733V39.7333H143.059V25.76H146.281V28.3467C146.636 27.7422 147.089 27.2356 147.639 26.8267C148.189 26.4 148.82 26.08 149.53 25.8667C150.258 25.6356 151.021 25.52 151.82 25.52C152.69 25.52 153.4 25.68 153.95 26C154.519 26.3022 154.945 26.72 155.229 27.2533C155.531 27.7689 155.735 28.3556 155.841 29.0133C155.966 29.6711 156.028 30.3378 156.028 31.0133V39.7333Z" fill="white"/>
<path d="M159.104 20.2667H162.672V35.2533C162.672 35.8933 162.779 36.3289 162.992 36.56C163.205 36.7733 163.498 36.88 163.871 36.88C164.155 36.88 164.448 36.8444 164.75 36.7733C165.051 36.7022 165.318 36.6133 165.549 36.5067L166.028 39.2267C165.549 39.4578 164.989 39.6356 164.35 39.76C163.711 39.8844 163.134 39.9467 162.619 39.9467C161.501 39.9467 160.631 39.6533 160.009 39.0667C159.406 38.4622 159.104 37.6089 159.104 36.5067V20.2667Z" fill="white"/>
<path d="M167.583 39.7333V25.76H171.151V39.7333H167.583ZM167.583 23.8133V20.2667H171.151V23.8133H167.583Z" fill="white"/>
<path d="M187.34 39.7333H183.771V31.8933C183.771 30.7733 183.576 29.9556 183.185 29.44C182.795 28.9244 182.253 28.6667 181.561 28.6667C181.081 28.6667 180.593 28.7911 180.096 29.04C179.617 29.2889 179.182 29.6356 178.791 30.08C178.401 30.5067 178.116 31.0044 177.939 31.5733V39.7333H174.37V25.76H177.593V28.3467C177.948 27.7422 178.401 27.2356 178.951 26.8267C179.501 26.4 180.132 26.08 180.842 25.8667C181.57 25.6356 182.333 25.52 183.132 25.52C184.002 25.52 184.712 25.68 185.262 26C185.83 26.3022 186.257 26.72 186.541 27.2533C186.842 27.7689 187.047 28.3556 187.153 29.0133C187.277 29.6711 187.34 30.3378 187.34 31.0133V39.7333Z" fill="white"/>
<path d="M196.914 40C195.795 40 194.783 39.8133 193.878 39.44C192.972 39.0489 192.2 38.5244 191.561 37.8667C190.922 37.1911 190.425 36.4267 190.07 35.5733C189.732 34.7022 189.564 33.7867 189.564 32.8267C189.564 31.4933 189.857 30.2756 190.442 29.1733C191.046 28.0711 191.898 27.1911 192.999 26.5333C194.117 25.8578 195.431 25.52 196.94 25.52C198.467 25.52 199.772 25.8578 200.855 26.5333C201.938 27.1911 202.764 28.0711 203.332 29.1733C203.918 30.2578 204.211 31.4311 204.211 32.6933C204.211 32.9067 204.202 33.1289 204.184 33.36C204.166 33.5733 204.148 33.7511 204.131 33.8933H193.345C193.416 34.6044 193.62 35.2267 193.958 35.76C194.313 36.2933 194.757 36.7022 195.289 36.9867C195.84 37.2533 196.425 37.3867 197.047 37.3867C197.757 37.3867 198.423 37.2178 199.044 36.88C199.683 36.5244 200.118 36.0622 200.349 35.4933L203.412 36.3467C203.074 37.0578 202.586 37.6889 201.947 38.24C201.326 38.7911 200.589 39.2267 199.737 39.5467C198.884 39.8489 197.943 40 196.914 40ZM193.265 31.6267H200.562C200.491 30.9156 200.287 30.3022 199.95 29.7867C199.63 29.2533 199.204 28.8444 198.671 28.56C198.139 28.2578 197.544 28.1067 196.887 28.1067C196.248 28.1067 195.662 28.2578 195.129 28.56C194.615 28.8444 194.189 29.2533 193.851 29.7867C193.532 30.3022 193.336 30.9156 193.265 31.6267Z" fill="white"/>
</svg>
