<svg width="70" height="74" viewBox="0 0 70 74" fill="none" xmlns="http://www.w3.org/2000/svg">
<path d="M23.9484 58.9893L23.5295 66.2234C23.5216 66.351 23.5399 66.4788 23.5832 66.599C23.6265 66.7192 23.694 66.8291 23.7813 66.9218C23.8686 67.0146 23.974 67.0883 24.0909 67.1382C24.2077 67.1881 24.3335 67.2133 24.4604 67.2121H45.4024C45.529 67.2128 45.6543 67.1873 45.7707 67.1371C45.887 67.0869 45.9919 67.0132 46.0788 66.9204C46.1657 66.8277 46.2327 66.718 46.2757 66.5981C46.3187 66.4781 46.3367 66.3506 46.3287 66.2234L45.9144 58.9893C45.8999 58.7502 45.7956 58.5256 45.6228 58.3612C45.4499 58.1967 45.2213 58.1046 44.9835 58.1037H24.8747C24.6372 58.104 24.4088 58.196 24.2365 58.3607C24.0642 58.5255 23.9611 58.7504 23.9484 58.9893ZM25.7544 59.9785H44.1052L44.4171 65.3372H25.447L25.7544 59.9785Z" fill="#7036BA"/>
<path d="M23.4135 18.7616L28.2584 22.3043C28.3143 22.3451 28.3557 22.4029 28.3766 22.4691C28.3975 22.5354 28.3967 22.6066 28.3744 22.6724L26.5268 28.4093C26.3722 28.8837 26.3824 29.397 26.5558 29.8647C26.7292 30.3325 27.0555 30.7269 27.481 30.9831C27.8487 31.2087 28.2748 31.319 28.7049 31.2998C29.1351 31.2806 29.5498 31.1329 29.8963 30.8754L34.738 27.3327C34.7941 27.2916 34.8618 27.2695 34.9312 27.2695C35.0006 27.2695 35.0682 27.2916 35.1244 27.3327L39.9692 30.8754C40.3432 31.1486 40.7934 31.2955 41.2554 31.2952C41.7174 31.2948 42.1673 31.1472 42.5409 30.8734C42.9145 30.5996 43.1924 30.2138 43.3349 29.7712C43.4774 29.3285 43.4771 28.8518 43.3342 28.4093L41.4866 22.6715C41.4651 22.6052 41.4652 22.5336 41.487 22.4674C41.5088 22.4012 41.5511 22.3437 41.6076 22.3034L46.4493 18.7607C46.8232 18.4871 47.1016 18.1013 47.2446 17.6586C47.3876 17.2158 47.3877 16.7388 47.2451 16.296C47.1025 15.8531 46.8244 15.4671 46.4506 15.1932C46.0768 14.9193 45.6266 14.7716 45.1644 14.7713H39.1722C39.1029 14.7702 39.0357 14.7475 38.9798 14.7063C38.924 14.6651 38.8822 14.6074 38.8602 14.5412L37.0126 8.80938C36.9253 8.53074 36.7832 8.27263 36.5949 8.05038C36.4066 7.82812 36.1759 7.64626 35.9164 7.5156C35.6516 7.38352 35.3634 7.30594 35.0685 7.28737C34.7736 7.26881 34.478 7.30964 34.199 7.40748C33.8812 7.51968 33.5937 7.70472 33.359 7.94801C33.1244 8.1913 32.9491 8.48618 32.847 8.80938L30.9994 14.5421C30.9775 14.6082 30.9357 14.6658 30.88 14.707C30.8242 14.7483 30.7571 14.771 30.6879 14.7722H24.7043C24.2428 14.7737 23.7935 14.922 23.4205 15.1958C23.0475 15.4696 22.7697 15.855 22.6269 16.2971C22.4841 16.7393 22.4834 17.2155 22.625 17.658C22.7665 18.1005 23.0431 18.4867 23.4154 18.7616H23.4135ZM24.7025 16.6452H30.6861C31.1482 16.6455 31.5984 16.4982 31.9722 16.2245C32.346 15.9508 32.6239 15.5647 32.7661 15.1218L34.6229 9.38542C34.6342 9.33738 34.6576 9.29312 34.691 9.25699C34.7244 9.22085 34.7666 9.19408 34.8133 9.1793C34.905 9.14873 35.0046 9.15365 35.0929 9.1931C35.1302 9.21285 35.163 9.24011 35.1894 9.2732C35.2158 9.30628 35.2352 9.34448 35.2463 9.38542L37.0939 15.1237C37.2362 15.5666 37.5142 15.9527 37.8881 16.2265C38.2619 16.5002 38.7123 16.6475 39.1745 16.6471H45.164C45.2332 16.6466 45.3008 16.6684 45.3569 16.7092C45.413 16.7501 45.4547 16.8079 45.476 16.8743C45.4973 16.9406 45.497 17.0121 45.4753 17.0783C45.4535 17.1445 45.4113 17.202 45.3549 17.2424L40.51 20.7851C40.1356 21.0584 39.8571 21.4446 39.7149 21.8878C39.5727 22.3311 39.5741 22.8084 39.7189 23.2508L41.5656 28.9863C41.5873 29.044 41.5913 29.107 41.5772 29.167C41.5631 29.2271 41.5316 29.2816 41.4866 29.3235C41.4326 29.3809 41.3595 29.4161 41.2812 29.4222C41.203 29.4283 41.1253 29.405 41.0632 29.3566L36.2179 25.8139C35.8441 25.5396 35.3936 25.3919 34.9312 25.3919C34.4688 25.3919 34.0182 25.5396 33.6445 25.8139L28.8028 29.3566C28.7524 29.3969 28.6908 29.4203 28.6265 29.4236C28.5622 29.4269 28.4985 29.4099 28.4443 29.375C28.3778 29.3385 28.3263 29.2794 28.299 29.2082C28.2717 29.137 28.2704 29.0583 28.2954 28.9863L30.1466 23.2526C30.2895 22.8096 30.2894 22.3324 30.1464 21.8894C30.0034 21.4465 29.7247 21.0605 29.3505 20.787L24.5056 17.2443C24.4568 17.2126 24.418 17.1675 24.3937 17.1144C24.3695 17.0612 24.3607 17.0022 24.3686 16.9443C24.3761 16.8612 24.4149 16.7841 24.477 16.7289C24.539 16.6736 24.6197 16.6444 24.7025 16.6471V16.6452Z" fill="#7036BA"/>
<path d="M69.6906 9.06888C68.7971 6.09208 65.7624 3.91584 62.7775 4.12013C61.1997 4.27182 59.7158 4.94399 58.5561 6.03227V0.937668C58.5554 0.689207 58.4571 0.45113 58.2827 0.275441C58.1083 0.0997521 57.8719 0.000728386 57.6253 1.12997e-07H12.2389C12.1166 -6.036e-05 11.9956 0.0241525 11.8826 0.0712533C11.7696 0.118354 11.667 0.18742 11.5805 0.274502C11.4941 0.361585 11.4255 0.464976 11.3788 0.578767C11.332 0.692557 11.308 0.814515 11.308 0.937668V5.9108C10.1718 4.88817 8.73959 4.26 7.22232 4.11875C4.23649 3.9163 1.20315 6.0907 0.309268 9.0675C-0.905256 13.1112 1.69462 16.1755 3.98846 18.879C6.0786 21.3409 8.05362 23.6671 7.51328 26.5777C7.27576 27.8609 6.45771 28.9633 5.08286 29.854C4.88336 29.9918 4.74497 30.2025 4.69701 30.4414C4.64905 30.6802 4.69528 30.9285 4.82592 31.1336C4.95656 31.3387 5.16134 31.4845 5.39687 31.5401C5.6324 31.5958 5.88019 31.5569 6.08773 31.4317C7.88599 30.2667 9.01099 28.7074 9.34168 26.9228C10.0437 23.1307 7.6841 20.3503 5.40213 17.6611C3.22568 15.0961 1.1698 12.6737 2.08926 9.60948C2.42184 8.54116 3.08981 7.6105 3.9927 6.9575C4.89558 6.3045 5.98455 5.96447 7.0958 5.98856C8.55286 6.08748 10.1104 7.06609 11.3062 8.61108V23.5056C11.3118 28.5902 12.9313 33.5398 15.9281 37.6313C18.9249 41.7228 23.142 44.7419 27.9633 46.2475V50.9262H17.0701C16.8357 50.9259 16.6097 51.0145 16.4373 51.1743C16.2648 51.3342 16.1583 51.5536 16.1392 51.7889L14.4684 72.6242C14.4595 72.7531 14.4769 72.8825 14.5196 73.0044C14.5623 73.1264 14.6293 73.2382 14.7165 73.333C14.8037 73.4278 14.9093 73.5037 15.0267 73.5558C15.1441 73.608 15.2709 73.6354 15.3992 73.6364H54.4654C54.5936 73.6359 54.7204 73.6087 54.8378 73.5566C54.9551 73.5045 55.0605 73.4286 55.1474 73.3336C55.2343 73.2386 55.3008 73.1266 55.3428 73.0045C55.3848 72.8824 55.4012 72.7529 55.3913 72.6242L53.7209 51.7907C53.7026 51.5559 53.5971 51.3366 53.4254 51.1767C53.2537 51.0168 53.0284 50.928 52.7946 50.9281H41.8945V46.2475C46.7165 44.7424 50.9345 41.7236 53.9323 37.6321C56.93 33.5406 58.5505 28.5908 58.5571 23.5056V8.7827C59.7707 7.13557 61.3917 6.09162 62.9031 5.98902C64.0144 5.96486 65.1034 6.30486 66.0063 6.95787C66.9092 7.61088 67.5771 8.54158 67.9097 9.60994C68.8291 12.6723 66.7737 15.0947 64.5968 17.6616C62.313 20.3508 59.9557 23.1316 60.6577 26.9237C60.9888 28.7088 62.1138 30.2681 63.9112 31.4326C64.014 31.4992 64.1289 31.5447 64.2492 31.5666C64.3695 31.5885 64.493 31.5864 64.6124 31.5602C64.7319 31.5341 64.8451 31.4845 64.9456 31.4143C65.046 31.344 65.1318 31.2546 65.1979 31.151C65.264 31.0474 65.3092 30.9317 65.331 30.8105C65.3527 30.6893 65.3506 30.565 65.3246 30.4446C65.2986 30.3243 65.2494 30.2103 65.1797 30.1091C65.11 30.0079 65.0212 29.9215 64.9183 29.8549C63.5435 28.9642 62.7259 27.8618 62.4875 26.5791C61.9489 23.6681 63.9226 21.3423 66.0123 18.8799C68.3052 16.1768 70.9055 13.1126 69.6906 9.06888ZM51.934 52.8011L53.456 71.7596H16.4046L17.926 52.8011H51.934ZM40.0336 50.9262H29.8269V46.7444C33.1889 47.488 36.6711 47.488 40.0332 46.7444L40.0336 50.9262ZM56.6948 23.5047C56.6896 28.09 55.2597 32.5587 52.6057 36.284C49.9517 40.0093 46.2067 42.8045 41.8958 44.2774C41.2865 44.484 40.6672 44.6667 40.0345 44.8167C36.6803 45.6295 33.1825 45.6295 29.8283 44.8167C29.1952 44.6621 28.5763 44.484 27.9665 44.2728C23.6557 42.8018 19.9105 40.0079 17.2567 36.2832C14.6029 32.5586 13.1737 28.0903 13.1698 23.5056V1.87534H56.6944L56.6948 23.5047Z" fill="#7036BA"/>
</svg>
