<svg width="70" height="50" viewBox="0 0 70 50" fill="none" xmlns="http://www.w3.org/2000/svg">
<path d="M6.64136 36.3858C6.86799 36.3858 7.08533 36.2958 7.24557 36.1356C7.40582 35.9753 7.49584 35.758 7.49584 35.5314V1.71049H62.5133V35.5314C62.5133 35.758 62.6034 35.9753 62.7636 36.1356C62.9239 36.2958 63.1412 36.3858 63.3678 36.3858C63.5945 36.3858 63.8118 36.2958 63.972 36.1356C64.1323 35.9753 64.2223 35.758 64.2223 35.5314V0.85448C64.2223 0.627858 64.1323 0.410518 63.972 0.250272C63.8118 0.0900256 63.5945 0 63.3678 0H6.64136C6.41474 0 6.1974 0.0900256 6.03715 0.250272C5.87691 0.410518 5.78688 0.627858 5.78688 0.85448V35.5314C5.78688 35.758 5.87691 35.9753 6.03715 36.1356C6.1974 36.2958 6.41474 36.3858 6.64136 36.3858Z" fill="#7036BA"/>
<path d="M12.0515 5.44846C11.9392 5.44826 11.8279 5.47021 11.7241 5.51306C11.6202 5.55591 11.5258 5.61882 11.4463 5.69819C11.3668 5.77755 11.3038 5.87182 11.2607 5.97559C11.2177 6.07936 11.1955 6.1906 11.1955 6.30294V34.5911C11.1955 34.8182 11.2857 35.0359 11.4462 35.1964C11.6068 35.357 11.8245 35.4471 12.0515 35.4471H57.9577C58.1847 35.4471 58.4024 35.357 58.5629 35.1964C58.7235 35.0359 58.8137 34.8182 58.8137 34.5911V6.30294C58.8137 6.1906 58.7915 6.07936 58.7485 5.97559C58.7054 5.87182 58.6424 5.77755 58.5629 5.69819C58.4833 5.61882 58.389 5.55591 58.2851 5.51306C58.1813 5.47021 58.07 5.44826 57.9577 5.44846H12.0515ZM57.1032 33.7336H12.906V7.15742H57.1032V33.7336Z" fill="#7036BA"/>
<path d="M69.144 38.9569H37.9279C37.7013 38.9569 37.4839 39.047 37.3237 39.2072C37.1634 39.3675 37.0734 39.5848 37.0734 39.8114C37.0734 40.038 37.1634 40.2554 37.3237 40.4156C37.4839 40.5759 37.7013 40.6659 37.9279 40.6659H40.0304V41.4653C40.03 41.9821 39.8245 42.4777 39.459 42.8432C39.0935 43.2087 38.5979 43.4142 38.081 43.4146H31.9266C31.41 43.4138 30.9148 43.2081 30.5496 42.8427C30.1845 42.4772 29.9792 41.9819 29.9788 41.4653V40.6659H32.2482C32.4748 40.6659 32.6922 40.5759 32.8524 40.4156C33.0127 40.2554 33.1027 40.038 33.1027 39.8114C33.1027 39.5848 33.0127 39.3675 32.8524 39.2072C32.6922 39.047 32.4748 38.9569 32.2482 38.9569H0.856012C0.743671 38.9567 0.632393 38.9787 0.528546 39.0216C0.424699 39.0644 0.330321 39.1273 0.250813 39.2067C0.171305 39.286 0.108227 39.3803 0.0651896 39.4841C0.0221522 39.5878 -1.804e-07 39.6991 0 39.8114V43.1574C0.00202909 44.8618 0.680535 46.4957 1.88647 47.7002C3.0924 48.9047 4.72714 49.5813 6.43157 49.5813H63.5761C65.2792 49.5793 66.912 48.9018 68.1162 47.6975C69.3205 46.4933 69.998 44.8605 70 43.1574V39.8114C70 39.6991 69.9778 39.5878 69.9348 39.4841C69.8918 39.3803 69.8287 39.286 69.7492 39.2067C69.6697 39.1273 69.5753 39.0644 69.4715 39.0216C69.3676 38.9787 69.2563 38.9567 69.144 38.9569ZM68.2895 43.1574C68.2883 44.4071 67.7913 45.6053 66.9076 46.4889C66.024 47.3726 64.8258 47.8696 63.5761 47.8708H6.4331C5.1834 47.8696 3.98523 47.3726 3.10155 46.4889C2.21788 45.6053 1.7209 44.4071 1.71968 43.1574V40.6659H28.2668V41.4653C28.2676 42.435 28.653 43.3648 29.3386 44.0507C30.0242 44.7365 30.9538 45.1224 31.9236 45.1236H38.078C38.5588 45.124 39.035 45.0297 39.4794 44.8461C39.9237 44.6624 40.3276 44.3931 40.6679 44.0534C41.0081 43.7137 41.2782 43.3103 41.4626 42.8662C41.6469 42.4221 41.742 41.9461 41.7424 41.4653V40.6659H68.2895V43.1574Z" fill="#7036BA"/>
<path d="M39.3864 22.4872L30.6678 22.4812L30.6718 28.4013C30.667 28.6907 30.5487 28.9664 30.3424 29.1691C30.1362 29.3718 29.8584 29.4852 29.569 29.485C29.2797 29.4848 29.0018 29.371 28.7952 29.168C28.5887 28.965 28.47 28.6892 28.4648 28.3998L28.4552 14.3526C28.4601 14.0633 28.5784 13.7876 28.7846 13.5849C28.9909 13.3822 29.2686 13.2687 29.558 13.2689C29.8474 13.2691 30.1252 13.383 30.3318 13.5859C30.5383 13.7889 30.657 14.0648 30.6622 14.3541L30.6662 20.2743L39.3849 20.2802L39.3808 14.3601C39.3857 14.0708 39.5039 13.795 39.7102 13.5923C39.9165 13.3896 40.1942 13.2762 40.4836 13.2764C40.7729 13.2766 41.0508 13.3904 41.2574 13.5934C41.4639 13.7964 41.5826 14.0723 41.5878 14.3616L41.5974 28.4088C41.5925 28.6981 41.4743 28.9738 41.268 29.1765C41.0617 29.3792 40.784 29.4927 40.4946 29.4925C40.2052 29.4923 39.9274 29.3784 39.7208 29.1755C39.5143 28.9725 39.3956 28.6966 39.3904 28.4073L39.3864 22.4872ZM45.6283 20.6075C45.6256 20.461 45.6522 20.3155 45.7064 20.1794C45.7606 20.0433 45.8414 19.9194 45.9441 19.815C46.0467 19.7105 46.1692 19.6276 46.3043 19.571C46.4394 19.5145 46.5844 19.4854 46.731 19.4855C46.8775 19.4856 47.0226 19.5149 47.1578 19.5716C47.293 19.6284 47.4156 19.7115 47.5184 19.8161C47.6212 19.9207 47.7021 20.0446 47.7565 20.1808C47.8109 20.3169 47.8377 20.4625 47.8352 20.609L47.8363 22.1698C47.839 22.3164 47.8124 22.4619 47.7582 22.598C47.7039 22.7341 47.6232 22.8579 47.5205 22.9624C47.4179 23.0668 47.2954 23.1498 47.1603 23.2064C47.0252 23.2629 46.8801 23.292 46.7336 23.2919C46.587 23.2918 46.4419 23.2625 46.3068 23.2058C46.1716 23.149 46.049 23.0659 45.9462 22.9613C45.8434 22.8567 45.7625 22.7327 45.7081 22.5966C45.6536 22.4604 45.6269 22.3149 45.6293 22.1683L45.6283 20.6075ZM22.2163 20.5916C22.2211 20.3022 22.3394 20.0265 22.5457 19.8238C22.7519 19.6211 23.0297 19.5077 23.3191 19.5079C23.6084 19.508 23.8863 19.6219 24.0929 19.8249C24.2994 20.0279 24.418 20.3037 24.4233 20.5931L24.4243 22.1539C24.4195 22.4432 24.3012 22.7189 24.095 22.9216C23.8887 23.1243 23.611 23.2378 23.3216 23.2376C23.0322 23.2374 22.7543 23.1235 22.5478 22.9206C22.3413 22.7176 22.2226 22.4417 22.2174 22.1524L22.2163 20.5916ZM42.5045 17.4838C42.5019 17.3373 42.5285 17.1917 42.5827 17.0557C42.6369 16.9196 42.7177 16.7957 42.8203 16.6913C42.923 16.5868 43.0454 16.5039 43.1805 16.4473C43.3157 16.3907 43.4607 16.3616 43.6073 16.3617C43.7538 16.3618 43.8989 16.3911 44.0341 16.4479C44.1693 16.5046 44.2918 16.5877 44.3946 16.6923C44.4974 16.7969 44.5784 16.9209 44.6328 17.0571C44.6872 17.1932 44.714 17.3388 44.7115 17.4853L44.7168 25.2893C44.7195 25.4358 44.6929 25.5814 44.6387 25.7175C44.5845 25.8535 44.5037 25.9774 44.401 26.0819C44.2984 26.1863 44.1759 26.2692 44.0408 26.3258C43.9057 26.3824 43.7607 26.4115 43.6141 26.4114C43.4676 26.4113 43.3225 26.382 43.1873 26.3252C43.0521 26.2685 42.9295 26.1854 42.8267 26.0808C42.724 25.9762 42.643 25.8522 42.5886 25.7161C42.5342 25.5799 42.5074 25.4343 42.5099 25.2878L42.5045 17.4838ZM25.3358 17.4721C25.3406 17.1828 25.4589 16.9071 25.6651 16.7044C25.8714 16.5017 26.1491 16.3882 26.4385 16.3884C26.7279 16.3886 27.0058 16.5024 27.2123 16.7054C27.4189 16.9084 27.5375 17.1843 27.5427 17.4736L27.5481 25.2776C27.5507 25.4241 27.5241 25.5697 27.4699 25.7057C27.4157 25.8418 27.3349 25.9657 27.2323 26.0702C27.1296 26.1746 27.0072 26.2575 26.8721 26.3141C26.737 26.3707 26.5919 26.3998 26.4453 26.3997C26.2988 26.3996 26.1537 26.3703 26.0185 26.3135C25.8833 26.2568 25.7608 26.1737 25.658 26.0691C25.5552 25.9645 25.4742 25.8405 25.4198 25.7043C25.3654 25.5682 25.3386 25.4226 25.3411 25.2761L25.3358 17.4721Z" fill="#7036BA"/>
</svg>
